<?xml version="1.0" encoding="UTF-8" standalone="no"?>
<!-- Generator: Adobe Illustrator 18.1.1, SVG Export Plug-In . SVG Version: 6.00 Build 0)  -->

<svg
   xmlns:dc="http://purl.org/dc/elements/1.1/"
   xmlns:cc="http://creativecommons.org/ns#"
   xmlns:rdf="http://www.w3.org/1999/02/22-rdf-syntax-ns#"
   xmlns:svg="http://www.w3.org/2000/svg"
   xmlns="http://www.w3.org/2000/svg"
   xmlns:sodipodi="http://sodipodi.sourceforge.net/DTD/sodipodi-0.dtd"
   xmlns:inkscape="http://www.inkscape.org/namespaces/inkscape"
   version="1.1"
   id="Capa_1"
   x="0px"
   y="0px"
   viewBox="0 0 28 28"
   xml:space="preserve"
   width="512px"
   height="512px"
   inkscape:version="0.48.4 r9939"
   sodipodi:docname="addnote.svg"><metadata
     id="metadata3402"><rdf:RDF><cc:Work
         rdf:about=""><dc:format>image/svg+xml</dc:format><dc:type
           rdf:resource="http://purl.org/dc/dcmitype/StillImage" /></cc:Work></rdf:RDF></metadata><defs
     id="defs3400" /><sodipodi:namedview
     pagecolor="#ffffff"
     bordercolor="#666666"
     borderopacity="1"
     objecttolerance="10"
     gridtolerance="10"
     guidetolerance="10"
     inkscape:pageopacity="0"
     inkscape:pageshadow="2"
     inkscape:window-width="1440"
     inkscape:window-height="854"
     id="namedview3398"
     showgrid="true"
     inkscape:zoom="1.3037281"
     inkscape:cx="-5.5275009"
     inkscape:cy="300.71009"
     inkscape:window-x="-6"
     inkscape:window-y="-6"
     inkscape:window-maximized="1"
     inkscape:current-layer="g3360"
     inkscape:snap-grids="true"
     inkscape:snap-to-guides="true"><inkscape:grid
       type="xygrid"
       id="grid3009" /></sodipodi:namedview><g
     id="g3358"><g
       id="g3360"><path
         d="m 23.822034,11.686697 0,-11.51799997 -24.0000001,0 0,23.99999997 11.5180001,0 c 1.614,2.411 4.361,3.999 7.482,4 4.971,-0.002 8.998,-4.029 9,-9 -10e-4,-3.121 -1.589,-5.868 -4,-7.482 z m -12.337659,2.641428 c -0.412,0.616 -0.84275,1.4765 -1.09375,2.1875 l -6.5625,0 -0.00609,1.653072 6.058,0 c -0.036,0.329 -0.058,0.661 -0.058,1 0,1.055 0.1900001,2.061 0.5230001,3 l -8.5230001,0 0,-20 20.0000001,0 0,8.523 c -0.939,-0.333 -1.945,-0.523 -3,-0.523 -2.143,0 -4.152034,1.269803 -5.697034,2.518803 l -9.296875,0 0,1.640625 z m 7.337659,11.723572 c -3.801,-0.009 -6.876,-3.084 -6.885,-6.883 0.009,-3.801 3.084,-6.876 6.885,-6.884 3.799,0.008 6.874,3.083 6.883,6.884 -0.009,3.799 -3.084,6.874 -6.883,6.883 z"
         id="path3362"
         inkscape:connector-curvature="0"
         style="fill:#ff9900"
         sodipodi:nodetypes="cccccccccccccscccccsccccccccc" /><polygon
         points="20,8 4,8 4,10 19,10 20,10 "
         id="polygon3364"
         transform="matrix(0.98951325,0,0,0.85318545,-0.11053811,2.036719)"
         style="fill:#ff9900" /><polygon
         points="18,14 18,18 14,18 14,20 18,20 18,24 20.002,24 20.002,20 24,20 24,18 20.002,18 20.002,14 "
         id="polygon3366"
         transform="translate(-0.1779661,0.16869703)"
         style="fill:#ff9900" /><polygon
         points="4,10 19,10 20,10 20,8 4,8 "
         id="polygon3364-3"
         transform="matrix(0.99213492,0,0,0.81123843,-0.12102477,-1.4393637)"
         style="fill:#ff9900" /></g></g><g
     id="g3368" /><g
     id="g3370" /><g
     id="g3372" /><g
     id="g3374" /><g
     id="g3376" /><g
     id="g3378" /><g
     id="g3380" /><g
     id="g3382" /><g
     id="g3384" /><g
     id="g3386" /><g
     id="g3388" /><g
     id="g3390" /><g
     id="g3392" /><g
     id="g3394" /><g
     id="g3396" /></svg>