<?xml version="1.0" encoding="UTF-8"?>
<!DOCTYPE svg PUBLIC "-//W3C//DTD SVG 1.1//EN" "http://www.w3.org/Graphics/SVG/1.1/DTD/svg11.dtd">
<svg version="1.2" width="135.99mm" height="135.99mm" viewBox="0 0 13599 13599" preserveAspectRatio="xMidYMid" fill-rule="evenodd" stroke-width="28.222" stroke-linejoin="round" xmlns="http://www.w3.org/2000/svg" xmlns:ooo="http://xml.openoffice.org/svg/export" xmlns:xlink="http://www.w3.org/1999/xlink" xmlns:presentation="http://sun.com/xmlns/staroffice/presentation" xmlns:smil="http://www.w3.org/2001/SMIL20/" xmlns:anim="urn:oasis:names:tc:opendocument:xmlns:animation:1.0" xml:space="preserve">
 <defs class="ClipPathGroup">
  <clipPath id="presentation_clip_path" clipPathUnits="userSpaceOnUse">
   <rect x="0" y="0" width="13599" height="13599"/>
  </clipPath>
  <clipPath id="presentation_clip_path_shrink" clipPathUnits="userSpaceOnUse">
   <rect x="13" y="13" width="13572" height="13572"/>
  </clipPath>
 </defs>
 <defs class="TextShapeIndex">
  <g ooo:slide="id1" ooo:id-list="id3"/>
 </defs>
 <defs class="EmbeddedBulletChars">
  <g id="bullet-char-template-57356" transform="scale(0.00048828125,-0.00048828125)">
   <path d="M 580,1141 L 1163,571 580,0 -4,571 580,1141 Z"/>
  </g>
  <g id="bullet-char-template-57354" transform="scale(0.00048828125,-0.00048828125)">
   <path d="M 8,1128 L 1137,1128 1137,0 8,0 8,1128 Z"/>
  </g>
  <g id="bullet-char-template-10146" transform="scale(0.00048828125,-0.00048828125)">
   <path d="M 174,0 L 602,739 174,1481 1456,739 174,0 Z M 1358,739 L 309,1346 659,739 1358,739 Z"/>
  </g>
  <g id="bullet-char-template-10132" transform="scale(0.00048828125,-0.00048828125)">
   <path d="M 2015,739 L 1276,0 717,0 1260,543 174,543 174,936 1260,936 717,1481 1274,1481 2015,739 Z"/>
  </g>
  <g id="bullet-char-template-10007" transform="scale(0.00048828125,-0.00048828125)">
   <path d="M 0,-2 C -7,14 -16,27 -25,37 L 356,567 C 262,823 215,952 215,954 215,979 228,992 255,992 264,992 276,990 289,987 310,991 331,999 354,1012 L 381,999 492,748 772,1049 836,1024 860,1049 C 881,1039 901,1025 922,1006 886,937 835,863 770,784 769,783 710,716 594,584 L 774,223 C 774,196 753,168 711,139 L 727,119 C 717,90 699,76 672,76 641,76 570,178 457,381 L 164,-76 C 142,-110 111,-127 72,-127 30,-127 9,-110 8,-76 1,-67 -2,-52 -2,-32 -2,-23 -1,-13 0,-2 Z"/>
  </g>
  <g id="bullet-char-template-10004" transform="scale(0.00048828125,-0.00048828125)">
   <path d="M 285,-33 C 182,-33 111,30 74,156 52,228 41,333 41,471 41,549 55,616 82,672 116,743 169,778 240,778 293,778 328,747 346,684 L 369,508 C 377,444 397,411 428,410 L 1163,1116 C 1174,1127 1196,1133 1229,1133 1271,1133 1292,1118 1292,1087 L 1292,965 C 1292,929 1282,901 1262,881 L 442,47 C 390,-6 338,-33 285,-33 Z"/>
  </g>
  <g id="bullet-char-template-9679" transform="scale(0.00048828125,-0.00048828125)">
   <path d="M 813,0 C 632,0 489,54 383,161 276,268 223,411 223,592 223,773 276,916 383,1023 489,1130 632,1184 813,1184 992,1184 1136,1130 1245,1023 1353,916 1407,772 1407,592 1407,412 1353,268 1245,161 1136,54 992,0 813,0 Z"/>
  </g>
  <g id="bullet-char-template-8226" transform="scale(0.00048828125,-0.00048828125)">
   <path d="M 346,457 C 273,457 209,483 155,535 101,586 74,649 74,723 74,796 101,859 155,911 209,963 273,989 346,989 419,989 480,963 531,910 582,859 608,796 608,723 608,648 583,586 532,535 482,483 420,457 346,457 Z"/>
  </g>
  <g id="bullet-char-template-8211" transform="scale(0.00048828125,-0.00048828125)">
   <path d="M -4,459 L 1135,459 1135,606 -4,606 -4,459 Z"/>
  </g>
  <g id="bullet-char-template-61548" transform="scale(0.00048828125,-0.00048828125)">
   <path d="M 173,740 C 173,903 231,1043 346,1159 462,1274 601,1332 765,1332 928,1332 1067,1274 1183,1159 1299,1043 1357,903 1357,740 1357,577 1299,437 1183,322 1067,206 928,148 765,148 601,148 462,206 346,322 231,437 173,577 173,740 Z"/>
  </g>
 </defs>
 <defs class="TextEmbeddedBitmaps"/>
 <g>
  <g id="id2" class="Master_Slide">
   <g id="bg-id2" class="Background"/>
   <g id="bo-id2" class="BackgroundObjects"/>
  </g>
 </g>
 <g class="SlideGroup">
  <g>
   <g id="container-id1">
    <g id="id1" class="Slide" clip-path="url(#presentation_clip_path)">
     <g class="Page">
      <g class="Group">
       <g class="com.sun.star.drawing.PolyPolygonShape">
        <g id="id3">
         <rect class="BoundingBox" stroke="none" fill="none" x="25" y="25" width="13546" height="13546"/>
         <path fill="rgb(94,185,30)" stroke="none" d="M 6799,26 L 6107,61 5436,164 4787,331 4165,559 3573,845 3015,1184 2493,1575 2012,2012 1575,2493 1184,3015 845,3573 559,4165 331,4787 164,5436 61,6107 26,6799 61,7488 164,8159 331,8808 559,9430 845,10022 1184,10580 1575,11102 2012,11583 2493,12020 3015,12411 3573,12750 4165,13036 4787,13264 5436,13431 6107,13534 6799,13569 7488,13534 8159,13431 8808,13264 9430,13036 10022,12750 10580,12411 11102,12020 11583,11583 12020,11102 12411,10580 12750,10022 13036,9430 13264,8808 13431,8159 13534,7488 13569,6799 13534,6107 13431,5436 13264,4787 13036,4165 12750,3573 12411,3015 12020,2493 11583,2012 11102,1575 10580,1184 10022,845 9430,559 8808,331 8159,164 7488,61 6799,26 Z M 7643,11029 L 5952,11029 5952,9336 7643,9336 7643,11029 Z M 7643,7993 L 7643,8489 5952,8489 5952,7643 5956,7560 5968,7477 5988,7397 6016,7319 6052,7245 6094,7174 6144,7107 6200,7044 7292,5952 7333,5909 7372,5864 7441,5770 7502,5669 7552,5563 7591,5453 7620,5339 7638,5223 7643,5106 7639,5019 7626,4935 7605,4854 7577,4776 7541,4702 7499,4632 7450,4567 7395,4507 7335,4452 7270,4404 7200,4361 7126,4325 7048,4297 6967,4276 6883,4263 6799,4259 6712,4263 6628,4276 6547,4297 6469,4325 6395,4361 6325,4404 6260,4452 6200,4507 6145,4567 6096,4632 6054,4702 6018,4776 5990,4854 5969,4935 5956,5019 5952,5106 5952,5952 4259,5952 4259,5106 4272,4846 4310,4594 4373,4351 4459,4118 4566,3896 4693,3686 4839,3491 5003,3310 5184,3146 5379,3000 5589,2873 5811,2766 6044,2680 6287,2617 6539,2579 6799,2566 7056,2579 7308,2617 7551,2680 7784,2766 8006,2873 8216,3000 8411,3146 8592,3310 8756,3491 8902,3686 9029,3896 9136,4118 9222,4351 9285,4594 9323,4846 9336,5106 9322,5393 9281,5674 9212,5948 9118,6212 8997,6466 8852,6708 8683,6935 8489,7147 7643,7993 Z"/>
        </g>
       </g>
      </g>
     </g>
    </g>
   </g>
  </g>
 </g>
</svg>