<?xml version="1.0" encoding="UTF-8" standalone="no"?>
<!-- Generator: Adobe Illustrator 16.0.0, SVG Export Plug-In . SVG Version: 6.00 Build 0)  -->

<svg
   xmlns:dc="http://purl.org/dc/elements/1.1/"
   xmlns:cc="http://creativecommons.org/ns#"
   xmlns:rdf="http://www.w3.org/1999/02/22-rdf-syntax-ns#"
   xmlns:svg="http://www.w3.org/2000/svg"
   xmlns="http://www.w3.org/2000/svg"
   xmlns:sodipodi="http://sodipodi.sourceforge.net/DTD/sodipodi-0.dtd"
   xmlns:inkscape="http://www.inkscape.org/namespaces/inkscape"
   version="1.1"
   id="Capa_1"
   x="0px"
   y="0px"
   width="512px"
   height="512px"
   viewBox="0 0 512 512"
   xml:space="preserve"
   inkscape:version="0.48.4 r9939"
   sodipodi:docname="note.svg"><metadata
     id="metadata3024"><rdf:RDF><cc:Work
         rdf:about=""><dc:format>image/svg+xml</dc:format><dc:type
           rdf:resource="http://purl.org/dc/dcmitype/StillImage" /></cc:Work></rdf:RDF></metadata><defs
     id="defs3022" /><sodipodi:namedview
     pagecolor="#ffffff"
     bordercolor="#666666"
     borderopacity="1"
     objecttolerance="10"
     gridtolerance="10"
     guidetolerance="10"
     inkscape:pageopacity="0"
     inkscape:pageshadow="2"
     inkscape:window-width="1440"
     inkscape:window-height="854"
     id="namedview3020"
     showgrid="true"
     inkscape:zoom="0.921875"
     inkscape:cx="124.52745"
     inkscape:cy="212.2173"
     inkscape:window-x="-6"
     inkscape:window-y="-6"
     inkscape:window-maximized="1"
     inkscape:current-layer="g2986"><inkscape:grid
       type="xygrid"
       id="grid3026"
       empspacing="5"
       visible="true"
       enabled="true"
       snapvisiblegridlinesonly="true" /></sodipodi:namedview><g
     id="g2986"
     transform="matrix(1,0,0,-1,0,512)"><path
       d="M 480,128 475,415 30,415 30,0 352,0 z m -128,0 82.75,0 L 352,45.25 z m 98,32 -130,0 0,-130 -260,0 0,355 390,0 z m -160,-60 -195,0 0,30 195,0 z m -195,125 320,0 0,-30 -320,0 z m 0,95 320,0 0,-30 -320,0 z m 325,100 z"
       id="path2988"
       inkscape:connector-curvature="0"
       style="fill:#ffcd00"
       sodipodi:nodetypes="cccccccccccccccccccccccccccccccccc" /></g><g
     id="g2990" /><g
     id="g2992" /><g
     id="g2994" /><g
     id="g2996" /><g
     id="g2998" /><g
     id="g3000" /><g
     id="g3002" /><g
     id="g3004" /><g
     id="g3006" /><g
     id="g3008" /><g
     id="g3010" /><g
     id="g3012" /><g
     id="g3014" /><g
     id="g3016" /><g
     id="g3018" /></svg>