<?xml version="1.0" encoding="UTF-8"?>
<!DOCTYPE svg PUBLIC "-//W3C//DTD SVG 1.1//EN" "http://www.w3.org/Graphics/SVG/1.1/DTD/svg11.dtd">
<svg version="1.2" width="16.53mm" height="16.61mm" viewBox="39 37 1653 1661" preserveAspectRatio="xMidYMid" fill-rule="evenodd" stroke-width="28.222" stroke-linejoin="round" xmlns="http://www.w3.org/2000/svg" xmlns:ooo="http://xml.openoffice.org/svg/export" xmlns:xlink="http://www.w3.org/1999/xlink" xmlns:presentation="http://sun.com/xmlns/staroffice/presentation" xmlns:smil="http://www.w3.org/2001/SMIL20/" xmlns:anim="urn:oasis:names:tc:opendocument:xmlns:animation:1.0" xml:space="preserve">
 <defs class="ClipPathGroup">
  <clipPath id="presentation_clip_path" clipPathUnits="userSpaceOnUse">
   <rect x="39" y="37" width="1653" height="1661"/>
  </clipPath>
  <clipPath id="presentation_clip_path_shrink" clipPathUnits="userSpaceOnUse">
   <rect x="40" y="38" width="1650" height="1658"/>
  </clipPath>
 </defs>
 <defs class="TextShapeIndex">
  <g ooo:slide="id1" ooo:id-list="id3"/>
 </defs>
 <defs class="EmbeddedBulletChars">
  <g id="bullet-char-template-57356" transform="scale(0.00048828125,-0.00048828125)">
   <path d="M 580,1141 L 1163,571 580,0 -4,571 580,1141 Z"/>
  </g>
  <g id="bullet-char-template-57354" transform="scale(0.00048828125,-0.00048828125)">
   <path d="M 8,1128 L 1137,1128 1137,0 8,0 8,1128 Z"/>
  </g>
  <g id="bullet-char-template-10146" transform="scale(0.00048828125,-0.00048828125)">
   <path d="M 174,0 L 602,739 174,1481 1456,739 174,0 Z M 1358,739 L 309,1346 659,739 1358,739 Z"/>
  </g>
  <g id="bullet-char-template-10132" transform="scale(0.00048828125,-0.00048828125)">
   <path d="M 2015,739 L 1276,0 717,0 1260,543 174,543 174,936 1260,936 717,1481 1274,1481 2015,739 Z"/>
  </g>
  <g id="bullet-char-template-10007" transform="scale(0.00048828125,-0.00048828125)">
   <path d="M 0,-2 C -7,14 -16,27 -25,37 L 356,567 C 262,823 215,952 215,954 215,979 228,992 255,992 264,992 276,990 289,987 310,991 331,999 354,1012 L 381,999 492,748 772,1049 836,1024 860,1049 C 881,1039 901,1025 922,1006 886,937 835,863 770,784 769,783 710,716 594,584 L 774,223 C 774,196 753,168 711,139 L 727,119 C 717,90 699,76 672,76 641,76 570,178 457,381 L 164,-76 C 142,-110 111,-127 72,-127 30,-127 9,-110 8,-76 1,-67 -2,-52 -2,-32 -2,-23 -1,-13 0,-2 Z"/>
  </g>
  <g id="bullet-char-template-10004" transform="scale(0.00048828125,-0.00048828125)">
   <path d="M 285,-33 C 182,-33 111,30 74,156 52,228 41,333 41,471 41,549 55,616 82,672 116,743 169,778 240,778 293,778 328,747 346,684 L 369,508 C 377,444 397,411 428,410 L 1163,1116 C 1174,1127 1196,1133 1229,1133 1271,1133 1292,1118 1292,1087 L 1292,965 C 1292,929 1282,901 1262,881 L 442,47 C 390,-6 338,-33 285,-33 Z"/>
  </g>
  <g id="bullet-char-template-9679" transform="scale(0.00048828125,-0.00048828125)">
   <path d="M 813,0 C 632,0 489,54 383,161 276,268 223,411 223,592 223,773 276,916 383,1023 489,1130 632,1184 813,1184 992,1184 1136,1130 1245,1023 1353,916 1407,772 1407,592 1407,412 1353,268 1245,161 1136,54 992,0 813,0 Z"/>
  </g>
  <g id="bullet-char-template-8226" transform="scale(0.00048828125,-0.00048828125)">
   <path d="M 346,457 C 273,457 209,483 155,535 101,586 74,649 74,723 74,796 101,859 155,911 209,963 273,989 346,989 419,989 480,963 531,910 582,859 608,796 608,723 608,648 583,586 532,535 482,483 420,457 346,457 Z"/>
  </g>
  <g id="bullet-char-template-8211" transform="scale(0.00048828125,-0.00048828125)">
   <path d="M -4,459 L 1135,459 1135,606 -4,606 -4,459 Z"/>
  </g>
  <g id="bullet-char-template-61548" transform="scale(0.00048828125,-0.00048828125)">
   <path d="M 173,740 C 173,903 231,1043 346,1159 462,1274 601,1332 765,1332 928,1332 1067,1274 1183,1159 1299,1043 1357,903 1357,740 1357,577 1299,437 1183,322 1067,206 928,148 765,148 601,148 462,206 346,322 231,437 173,577 173,740 Z"/>
  </g>
 </defs>
 <defs class="TextEmbeddedBitmaps"/>
 <g class="SlideGroup">
  <g>
   <g id="container-id1">
    <g id="id1" class="Slide" clip-path="url(#presentation_clip_path)">
     <g class="Page">
      <g class="com.sun.star.drawing.PolyPolygonShape">
       <g id="id3">
        <rect class="BoundingBox" stroke="none" fill="none" x="38" y="36" width="1656" height="1664"/>
        <path fill="rgb(255,109,109)" stroke="none" d="M 1362,1177 L 1366,1172 1370,1167 1373,1161 1375,1158 1376,1155 1382,1145 1385,1139 1388,1133 1391,1128 1394,1122 1397,1116 1399,1110 1401,1108 1402,1105 1405,1099 1409,1087 1418,1063 1423,1051 1425,1045 1426,1039 1428,1033 1430,1027 1433,1015 1435,1009 1436,1003 1438,990 1438,990 1438,990 1438,989 1439,989 1439,989 1439,988 1439,988 1439,988 1439,988 1439,988 1439,988 1440,988 1440,988 1440,988 1440,988 1440,988 1440,988 1440,988 1440,988 1440,988 1440,987 1440,987 1441,987 1441,986 1441,986 1441,985 1441,985 1441,984 1441,984 1441,984 1442,984 1442,984 1442,984 1442,984 1442,984 1442,983 1442,983 1442,983 1442,983 1442,983 1442,983 1442,983 1443,983 1443,983 1443,982 1444,982 1444,982 1444,982 1444,981 1444,981 1444,981 1445,981 1445,981 1445,980 1445,980 1445,980 1445,980 1445,980 1445,980 1446,980 1446,980 1446,980 1446,980 1446,980 1446,980 1446,979 1449,976 1449,976 1450,976 1450,976 1450,976 1451,976 1451,976 1451,976 1452,976 1452,976 1452,976 1452,976 1452,975 1452,975 1452,975 1452,975 1452,975 1452,975 1452,975 1452,974 1452,974 1453,974 1453,974 1453,974 1453,974 1453,974 1453,974 1454,974 1454,973 1454,973 1455,973 1455,972 1455,972 1456,972 1456,972 1456,972 1456,972 1456,972 1456,972 1456,972 1457,972 1457,972 1457,972 1457,972 1457,972 1457,972 1457,972 1457,972 1457,972 1457,971 1457,971 1457,971 1692,937 1692,796 1457,761 1454,761 1454,761 1454,760 1454,760 1454,760 1454,760 1454,760 1454,760 1454,760 1454,760 1454,760 1453,760 1453,760 1453,760 1453,760 1453,760 1453,760 1453,760 1452,760 1452,760 1452,760 1452,760 1451,760 1451,759 1450,759 1450,759 1450,759 1450,759 1450,759 1450,759 1450,759 1449,759 1449,759 1449,758 1449,758 1449,758 1449,758 1448,758 1448,758 1448,758 1447,758 1447,758 1447,758 1447,757 1447,757 1447,757 1447,757 1447,757 1446,757 1446,756 1446,756 1446,756 1446,756 1446,755 1446,755 1446,755 1445,755 1445,755 1445,755 1445,755 1445,755 1445,754 1445,754 1445,754 1445,754 1445,754 1445,754 1445,754 1445,754 1445,754 1444,754 1444,754 1444,754 1444,754 1444,754 1444,754 1444,753 1443,753 1443,753 1443,753 1442,753 1442,753 1441,753 1440,752 1440,751 1440,751 1439,751 1439,751 1439,751 1439,751 1439,751 1438,751 1438,751 1438,750 1438,750 1438,749 1438,749 1438,748 1438,748 1437,748 1437,747 1437,747 1437,746 1436,746 1436,746 1436,745 1436,745 1436,743 1436,743 1430,718 1427,706 1425,700 1423,694 1422,688 1420,682 1415,670 1406,647 1402,635 1399,629 1398,626 1396,624 1395,621 1394,618 1391,612 1388,607 1385,602 1379,590 1376,584 1373,579 1370,573 1367,568 1359,558 1359,558 1359,557 1359,557 1359,556 1359,556 1359,555 1358,555 1358,554 1357,554 1357,553 1357,553 1357,553 1357,552 1357,552 1357,552 1357,552 1357,552 1357,552 1357,552 1357,552 1357,552 1357,552 1357,552 1357,552 1357,552 1357,552 1357,552 1356,552 1356,552 1356,552 1356,551 1356,550 1356,550 1356,550 1356,550 1356,549 1356,549 1356,549 1356,548 1356,548 1356,548 1356,548 1356,548 1356,548 1356,548 1356,548 1356,548 1356,548 1356,548 1356,548 1356,548 1356,548 1356,548 1355,548 1355,547 1355,547 1355,547 1355,547 1355,547 1355,547 1355,547 1355,547 1355,547 1355,547 1355,547 1355,547 1355,547 1355,547 1355,547 1354,547 1354,542 1354,537 1354,536 1354,535 1354,535 1354,535 1354,534 1355,534 1355,534 1355,534 1355,534 1355,534 1355,534 1355,534 1355,534 1355,534 1355,534 1356,534 1356,534 1356,533 1356,533 1357,532 1357,532 1357,532 1357,531 1358,531 1358,531 1358,530 1359,530 1359,530 1359,530 1359,529 1359,529 1359,529 1359,529 1359,529 1359,529 1359,529 1502,336 1396,230 1208,373 1208,373 1208,373 1208,373 1207,374 1207,374 1206,374 1205,375 1204,375 1203,376 1202,376 1201,377 1201,377 1200,378 1200,378 1195,378 1192,378 1190,378 1189,378 1188,378 1187,378 1187,377 1186,377 1185,377 1185,377 1185,377 1185,376 1185,376 1185,376 1185,376 1185,376 1185,376 1185,376 1185,376 1185,376 1185,376 1185,376 1185,376 1185,376 1185,376 1185,376 1184,376 1184,376 1183,376 1183,375 1182,375 1179,375 1179,375 1169,367 1164,364 1158,361 1137,349 1132,346 1126,343 1120,340 1114,338 1112,336 1109,335 1103,332 1091,328 1086,326 1080,323 1074,321 1068,320 1063,318 1057,315 1051,313 1045,312 1039,310 1033,308 1021,305 997,299 978,299 941,37 800,37 763,299 739,299 714,305 702,308 696,310 690,312 684,313 678,315 666,320 660,321 654,323 648,326 643,328 637,330 631,332 626,335 621,338 618,339 615,340 609,343 604,346 599,349 578,361 572,364 567,367 557,375 557,375 554,375 553,375 553,375 552,375 552,375 551,375 551,375 551,375 551,375 551,375 551,375 551,375 551,375 551,375 551,375 551,375 551,375 551,375 551,375 551,375 551,376 550,376 549,376 549,376 549,376 549,376 549,376 549,376 549,376 549,376 549,376 549,376 549,376 549,376 549,376 549,376 549,376 549,377 548,377 547,377 547,378 546,378 546,378 544,378 541,378 536,378 536,378 535,378 535,378 534,377 533,377 533,377 532,377 531,376 530,375 529,374 528,373 528,373 335,230 229,336 372,529 372,529 372,529 372,529 372,530 372,530 372,530 372,530 373,531 373,531 373,531 373,532 373,532 374,532 374,533 374,533 374,534 377,537 377,542 377,547 377,548 377,548 377,549 377,549 376,549 376,549 376,550 376,550 376,550 375,550 375,551 374,551 374,551 374,551 374,551 374,551 374,551 374,551 374,551 374,551 374,551 374,551 374,551 374,551 374,551 374,551 374,552 374,553 374,553 374,554 374,554 374,554 373,554 373,554 373,554 373,554 373,554 373,554 373,554 373,554 373,554 373,554 373,554 373,554 373,554 373,554 373,554 373,555 373,555 373,555 373,556 373,556 372,556 372,556 372,556 372,556 372,556 372,556 372,556 372,556 372,556 372,556 372,556 372,557 372,557 372,557 372,558 372,558 364,568 361,573 358,579 355,584 352,590 346,602 343,607 340,612 337,618 336,621 335,624 332,629 329,635 326,641 324,647 315,670 310,682 308,688 307,694 305,700 303,706 300,718 298,724 297,730 295,743 295,743 295,745 295,745 295,746 295,746 294,746 294,747 294,747 294,748 294,748 294,748 294,748 294,748 294,748 293,748 293,748 293,748 293,748 293,748 293,748 293,748 293,748 293,748 293,749 293,749 293,749 293,749 293,749 292,749 292,749 292,749 292,749 292,749 292,749 292,749 292,749 292,749 292,750 292,750 292,751 292,751 292,751 291,751 291,751 291,751 291,751 291,751 291,751 291,751 290,752 290,752 290,752 290,753 284,759 284,759 284,759 283,759 283,759 283,759 283,759 283,759 282,759 282,759 282,759 282,759 282,759 282,759 282,759 282,760 282,760 282,760 282,760 282,761 281,761 281,761 280,761 280,761 280,761 279,761 279,762 279,762 279,762 279,762 279,762 279,762 278,762 278,762 278,762 278,762 278,762 278,762 278,762 278,762 278,762 278,763 278,763 278,763 278,763 278,763 277,763 277,763 277,763 277,764 277,764 274,764 39,798 39,939 274,974 274,974 276,974 276,975 276,975 276,975 276,975 276,975 276,975 276,975 276,975 276,975 277,975 277,975 277,975 277,975 277,975 277,975 277,975 278,975 278,975 278,975 278,975 278,975 278,975 278,975 278,976 278,976 278,976 278,976 278,976 278,976 278,976 278,976 278,976 279,976 279,976 279,976 279,976 279,976 279,976 279,976 279,976 279,976 279,976 279,977 279,977 279,977 279,977 280,977 280,977 280,977 281,977 281,977 281,977 281,978 281,978 281,978 281,978 281,978 282,978 282,978 282,979 282,979 282,979 282,979 282,980 282,980 283,980 283,980 283,980 283,980 283,980 283,980 283,980 283,980 283,981 283,981 283,982 283,982 284,982 284,982 284,982 285,983 285,984 285,984 286,984 286,984 286,984 286,984 286,984 287,984 287,984 287,985 287,985 287,985 287,985 287,985 287,986 287,986 287,986 287,987 287,987 287,987 287,987 287,987 287,987 287,987 287,987 287,987 288,987 288,987 288,987 288,987 288,987 288,987 288,987 288,987 288,987 288,987 288,987 288,987 289,987 289,987 290,987 290,988 290,988 290,989 290,989 290,990 290,990 291,990 291,990 291,991 291,991 291,991 292,991 292,992 292,992 292,992 292,992 298,1017 304,1041 305,1048 307,1054 312,1066 316,1078 319,1084 320,1087 322,1089 326,1101 329,1107 332,1113 334,1119 337,1125 340,1131 343,1136 346,1142 349,1148 355,1158 356,1161 358,1164 361,1170 365,1175 369,1180 369,1181 370,1182 370,1183 371,1183 372,1184 372,1184 373,1185 374,1185 374,1193 374,1201 226,1400 332,1505 522,1363 522,1363 522,1363 523,1363 523,1363 523,1363 524,1363 524,1362 525,1362 525,1361 526,1361 526,1361 526,1361 527,1360 527,1360 528,1360 528,1360 528,1360 528,1360 528,1360 528,1360 528,1360 529,1360 529,1360 529,1360 529,1359 529,1359 529,1359 529,1359 529,1359 529,1359 530,1359 530,1358 530,1358 530,1357 536,1357 541,1357 542,1357 542,1357 543,1357 543,1357 543,1357 543,1358 543,1358 543,1358 543,1358 543,1358 543,1358 543,1358 544,1358 544,1359 544,1359 544,1360 544,1360 545,1360 546,1360 546,1360 546,1361 547,1361 547,1361 548,1361 548,1361 548,1361 548,1362 548,1362 548,1362 548,1362 548,1362 548,1363 548,1363 548,1363 548,1363 548,1363 548,1363 548,1363 548,1363 548,1363 548,1363 548,1363 548,1363 548,1363 548,1363 548,1363 549,1363 549,1363 549,1363 554,1367 559,1371 565,1374 568,1376 571,1377 581,1383 587,1386 593,1389 598,1392 604,1395 610,1398 616,1400 628,1406 634,1409 640,1411 663,1420 675,1425 681,1427 688,1428 700,1433 706,1435 712,1436 737,1442 737,1442 737,1442 738,1442 738,1442 738,1442 738,1442 738,1442 738,1442 738,1442 738,1442 738,1443 738,1443 738,1443 738,1443 738,1443 738,1443 738,1443 738,1443 738,1443 739,1443 739,1443 739,1443 740,1443 740,1443 740,1443 740,1443 740,1444 741,1444 741,1444 741,1444 741,1444 741,1444 741,1444 742,1444 742,1444 743,1444 743,1445 743,1445 744,1445 744,1445 744,1445 744,1446 745,1446 745,1447 745,1447 746,1447 746,1447 746,1447 746,1447 746,1447 746,1447 747,1447 750,1450 750,1450 750,1450 750,1450 750,1450 750,1451 750,1451 750,1451 750,1451 750,1451 750,1451 750,1451 750,1451 750,1451 751,1451 751,1451 751,1451 751,1451 751,1451 751,1452 751,1452 751,1452 751,1452 751,1452 751,1452 751,1452 751,1452 751,1452 752,1452 752,1452 752,1452 752,1452 752,1452 752,1452 752,1453 752,1453 752,1453 752,1453 752,1453 752,1453 752,1453 752,1453 752,1453 753,1453 753,1453 753,1453 753,1453 753,1454 753,1454 753,1454 753,1454 753,1454 753,1454 753,1454 754,1455 754,1455 754,1455 755,1455 755,1455 755,1455 755,1456 755,1456 755,1456 755,1457 755,1457 755,1457 755,1457 755,1457 755,1457 755,1457 755,1457 755,1458 755,1458 755,1458 755,1458 755,1458 755,1458 755,1458 755,1458 755,1458 756,1458 756,1458 756,1458 756,1458 756,1458 756,1458 756,1458 757,1458 757,1458 758,1458 758,1459 758,1459 758,1459 758,1460 758,1460 758,1460 758,1461 758,1461 758,1461 758,1461 758,1461 758,1462 758,1462 758,1462 758,1462 758,1462 758,1462 758,1462 758,1462 758,1462 759,1462 759,1463 760,1463 760,1463 795,1698 936,1698 970,1463 970,1463 970,1463 971,1463 971,1463 971,1463 971,1463 971,1463 971,1463 971,1463 971,1463 971,1463 971,1462 971,1462 971,1462 971,1462 971,1462 971,1462 971,1461 971,1461 971,1460 972,1460 972,1460 972,1460 972,1460 972,1460 972,1460 972,1460 972,1460 972,1460 972,1459 972,1459 972,1459 972,1459 972,1459 973,1459 973,1459 973,1459 973,1459 973,1459 973,1459 973,1459 973,1459 973,1459 973,1458 973,1458 973,1458 973,1458 973,1458 973,1458 973,1457 973,1457 973,1456 973,1456 973,1455 973,1452 974,1452 974,1451 975,1451 975,1451 976,1451 976,1451 976,1451 976,1451 976,1451 976,1451 976,1451 976,1451 976,1451 976,1450 976,1450 976,1450 976,1450 976,1450 976,1449 977,1449 977,1449 977,1449 977,1449 977,1449 977,1449 977,1449 977,1449 977,1449 977,1448 977,1448 977,1448 977,1448 977,1448 977,1448 977,1448 978,1448 978,1447 978,1447 978,1447 978,1447 978,1447 978,1447 978,1444 979,1444 979,1444 980,1444 980,1444 981,1444 981,1444 981,1443 981,1443 982,1443 982,1443 982,1443 983,1443 983,1443 983,1443 983,1443 983,1443 983,1443 983,1443 983,1443 983,1443 983,1442 983,1442 983,1442 983,1442 983,1442 983,1442 983,1442 983,1442 986,1439 986,1439 1011,1433 1017,1432 1023,1430 1035,1425 1042,1424 1048,1422 1060,1417 1083,1408 1089,1406 1095,1403 1107,1397 1113,1395 1119,1392 1125,1389 1130,1386 1136,1383 1142,1380 1152,1374 1155,1373 1158,1371 1164,1368 1169,1364 1174,1360 1174,1360 1175,1360 1175,1360 1176,1360 1176,1360 1176,1360 1177,1360 1177,1360 1177,1360 1177,1360 1177,1360 1177,1360 1177,1360 1177,1360 1177,1360 1177,1360 1177,1360 1177,1360 1177,1360 1177,1360 1177,1360 1177,1359 1177,1359 1177,1359 1178,1359 1178,1359 1178,1359 1178,1359 1178,1359 1178,1359 1178,1359 1178,1359 1178,1359 1178,1359 1178,1359 1178,1359 1178,1359 1178,1359 1178,1359 1178,1358 1178,1358 1178,1358 1178,1358 1179,1358 1179,1358 1179,1358 1179,1358 1179,1358 1179,1358 1179,1358 1179,1358 1179,1358 1179,1358 1179,1358 1179,1358 1179,1358 1179,1358 1179,1358 1179,1357 1179,1357 1179,1357 1179,1357 1179,1357 1179,1357 1182,1357 1187,1357 1192,1357 1193,1357 1194,1357 1194,1357 1195,1357 1195,1358 1195,1358 1195,1358 1196,1358 1196,1358 1197,1359 1197,1359 1198,1360 1198,1360 1198,1360 1198,1360 1198,1360 1198,1360 1198,1360 1198,1360 1198,1360 1198,1360 1199,1360 1199,1360 1199,1360 1199,1360 1199,1360 1199,1361 1200,1361 1200,1361 1200,1361 1200,1362 1201,1362 1201,1362 1201,1363 1202,1363 1202,1363 1202,1363 1203,1363 1203,1363 1203,1363 1393,1505 1499,1400 1364,1209 1364,1207 1364,1207 1364,1206 1364,1206 1364,1205 1364,1205 1364,1205 1364,1205 1364,1205 1364,1205 1364,1205 1364,1205 1364,1205 1364,1205 1364,1205 1364,1205 1363,1204 1363,1204 1363,1203 1363,1203 1362,1203 1362,1202 1362,1202 1362,1201 1362,1196 1362,1193 1362,1185 1362,1177 Z M 1235,902 L 1234,911 1233,918 1230,933 1229,941 1227,948 1222,963 1218,978 1215,986 1212,992 1200,1020 1185,1047 1181,1054 1177,1060 1168,1072 1159,1084 1154,1090 1149,1096 1145,1102 1140,1108 1135,1114 1129,1119 1124,1125 1118,1130 1112,1135 1106,1139 1100,1144 1094,1149 1082,1158 1070,1167 1064,1171 1057,1175 1030,1190 1002,1202 996,1205 988,1208 973,1212 958,1217 951,1219 943,1220 928,1223 921,1224 912,1225 901,1227 890,1228 868,1229 858,1229 849,1229 830,1227 818,1226 808,1224 787,1219 776,1217 766,1214 746,1208 736,1204 726,1200 717,1196 708,1191 698,1187 689,1182 671,1171 638,1147 630,1141 622,1134 614,1127 607,1119 599,1112 592,1104 585,1096 579,1088 555,1054 544,1036 539,1027 535,1018 530,1009 526,999 519,979 507,938 505,928 503,917 500,895 498,876 498,866 498,857 501,812 502,803 503,796 506,781 507,773 509,766 514,751 518,736 521,729 524,722 536,694 551,667 555,660 559,654 568,642 577,630 582,624 587,618 591,612 596,606 601,600 607,595 612,589 618,584 624,579 630,575 636,570 642,565 654,556 666,547 672,543 679,539 706,524 734,512 740,509 748,506 763,502 778,497 785,495 793,494 808,491 815,490 824,489 868,486 877,486 887,486 906,488 918,489 928,491 949,496 990,508 1010,515 1019,519 1028,524 1065,545 1098,569 1106,575 1114,582 1122,589 1129,597 1157,627 1181,661 1192,679 1197,688 1201,698 1206,707 1210,716 1217,736 1229,777 1231,787 1233,798 1236,819 1238,840 1238,851 1238,863 1235,902 Z"/>
       </g>
      </g>
     </g>
    </g>
   </g>
  </g>
 </g>
</svg>